<?xml version="1.0" encoding="utf-8" ?>
<svg xmlns="http://www.w3.org/2000/svg" xmlns:xlink="http://www.w3.org/1999/xlink" width="1024" height="1024">
	<path fill="#244059" transform="scale(2 2)" d="M80.3452 33.2512C86.8459 32.7406 93.5205 33.2373 100.042 33.2433L381.691 33.2454C390.219 33.2465 400.478 31.5025 407.152 38.1174C414.587 45.4872 412.232 63.3155 412.36 73.6117C429.344 74.3599 442.388 70.2675 453.67 86.2087C462.1 98.1194 459.04 124.597 459.042 139.23C459.044 160.966 463.714 162.373 440.521 162.352L412.36 162.336L412.36 252.598C419.248 254.566 426.761 258.546 432.656 262.577C433.869 260.644 446.039 248.748 448.308 246.502C452.067 242.781 455.072 241.234 459.499 244.636C465.455 249.211 478.076 262.386 483.028 268.276C488.081 274.286 478.943 280.645 475.185 284.564C472.064 287.817 469.035 291.475 465.506 294.275C470.065 299.381 475.777 314.696 477.038 321.25L495.257 321.222C500.896 321.217 510.468 319.65 510.818 327.907C511.146 335.643 510.86 343.515 510.862 351.262C510.867 369.844 514.345 372.021 493.164 372.036L475.982 372.029C472.28 380.136 469.633 387.851 465.506 396.235C468.842 398.749 483.879 413.522 485.711 416.673C486.41 424.09 474.675 432.409 469.928 437.151C464.448 442.625 459.473 451.295 451.372 450.335C444.784 444.614 437.593 436.699 430.887 430.461C426.023 435.576 413.454 439.828 406.674 441.718C406.461 449.929 406.67 458.198 406.674 466.416L406.678 466.918C406.643 477.609 395.332 475.027 388.063 475.021C379.037 475.013 361.483 477.579 355.272 471.134C355.929 461.727 355.263 450.542 355.272 440.949C348.223 439.734 334.999 434.616 329.347 430.461C327.185 433.792 321.979 437.934 318.979 440.793C314.68 444.89 310.92 450.719 304.4 450.335C299.326 447.281 279.326 426.854 275.59 422.323C270.447 416.084 280.802 408.907 284.715 404.866C287.957 401.519 291.059 397.509 294.781 394.714C290.63 387.564 287.818 379.96 285.569 372.029C269.137 372.209 252.677 372.072 236.243 372.029L236.243 426.038C236.248 433.742 236.99 448.895 235.46 455.668C232.832 467.3 222.124 475.006 210.408 475.064L45.1574 475.012C27.4904 475.043 6.37366 476.885 2.47329 452.867C1.5165 446.975 1.99865 440.518 2.008 434.538L1.85021 299.615C1.89164 286.333 10.8443 275.341 23.6879 272.435C29.1004 271.21 35.2699 271.833 40.8027 271.832L64.6642 271.832L64.6571 73.8584C64.6443 57.3702 59.6438 37.5873 80.3452 33.2512ZM16.7554 392.438C16.4983 405.29 16.7736 418.2 16.7681 431.059L16.7249 443.695C16.6895 451.623 16.5717 459.709 27.6494 460.118C40.983 460.609 54.4886 460.164 67.8428 460.164L205.329 460.208C214.896 460.255 221.211 459.284 221.327 448.091C221.674 414.313 221.302 380.487 221.305 346.704L221.32 313.063C221.344 288.609 224.348 286.549 196.342 286.669L45.795 286.662C22.9985 286.656 16.7433 282.847 16.7433 310.186L16.7508 330.808C16.7618 351.338 16.44 371.913 16.7554 392.438ZM404.796 265.334C403.654 265.679 402.502 265.988 401.354 266.309C400.494 267.034 400.477 268.228 400.186 269.245C398.109 276.505 388.982 275.92 383.003 276.443C365.264 277.996 342.663 290.205 332.281 304.113C331.31 305.414 330.067 307.24 330.059 308.902C328.185 310.823 327.003 313.119 325.758 315.471C294.409 374.715 365.511 433.233 416.875 393.722C419.076 392.029 425.47 386.815 426.816 384.729C430.49 388.44 435.239 390.929 438.891 394.714C442.954 390.508 445.845 389.353 451.372 390.75C458.941 377.858 459.481 372.397 463.526 359.427C463.834 355.018 464.568 352.4 469.311 351.776C476.587 350.818 488.256 351.796 496.003 351.648L496.003 335.884L479.566 335.903C464.704 336.041 466.433 336.461 462.105 321.401C459.516 312.391 455.954 305.811 450.453 298.261C448.275 295.27 448.199 292.484 450.419 289.61C452.981 286.294 464.622 274.885 468.06 272.565C463.359 268.84 459.548 264.179 454.936 260.367C450.346 263.796 446.255 268.661 442.209 272.728C432.698 282.289 432.813 278.439 423.665 273.226C417.736 269.847 411.312 267.32 404.796 265.334Z"/>
	<path fill="#7BD4F1" transform="scale(2 2)" d="M266.718 337.656C277.35 337.644 288.177 337.189 298.778 338.024C298.42 339.265 298.289 340.545 298.194 341.831L266.718 341.831L266.718 337.656Z"/>
	<path fill="#7BD4F1" transform="scale(2 2)" d="M496.003 351.648C495.991 353.569 495.963 355.493 496.003 357.414L475.711 357.393C470.851 357.38 467.643 356.499 463.526 359.427C463.834 355.018 464.568 352.4 469.311 351.776C476.587 350.818 488.256 351.796 496.003 351.648Z"/>
	<path fill="#2D9ED8" transform="scale(2 2)" d="M236.243 338.024L252.014 338.024L252.014 357.414C246.792 357.175 241.476 357.393 236.243 357.414L236.243 338.024Z"/>
	<path fill="#2D9ED8" transform="scale(2 2)" d="M444.701 127.845L444.657 116.664C444.628 114.264 444.442 111.753 444.701 109.37L444.701 147.801L412.36 147.801C412.374 141.219 412.754 134.398 412.36 127.845C423.097 128.094 433.963 127.98 444.701 127.845Z"/>
	<path fill="#7BD4F1" transform="scale(2 2)" d="M412.36 88.0367L422.16 88.0254C439.259 88.0046 444.9 91.8208 444.701 109.37C444.442 111.753 444.628 114.264 444.657 116.664L444.701 127.845C433.963 127.98 423.097 128.094 412.36 127.845C412.788 123.833 412.38 119.384 412.377 115.319L412.36 88.0367Z"/>
	<path fill="#7BD4F1" transform="scale(2 2)" d="M380.519 48.0626C403.344 47.965 397.78 46.825 397.783 71.421L397.78 218.236L380.519 218.236L380.519 48.0626Z"/>
	<path fill="#F9BC5D" transform="scale(2 2)" d="M79.3007 55.045C79.1709 51.7341 78.1652 48.4313 82.494 48.1924C93.4116 47.5901 104.599 48.0518 115.541 48.0517L365.792 48.0626L365.792 60.2383C342.947 59.927 320.095 60.4035 297.25 60.516L219.899 61.5291C213.395 61.6113 172.812 60.6038 168.759 61.9741C165.376 56.9643 158.335 56.2133 154.983 61.9741L140.447 61.9741C137.552 55.4866 130.045 57.2446 126.564 61.9741C122.664 62.0558 115.349 61.5552 111.969 61.9741C108.913 56.1095 101.153 56.7446 97.93 61.9741C93.0741 60.6032 84.7248 62.0209 79.3007 61.531C79.3805 59.4106 79.5991 57.147 79.3007 55.045Z"/>
	<path fill="#2D9ED8" transform="scale(2 2)" d="M294.781 274.773C296.425 272.701 298.247 270.735 299.933 268.691C306.925 276.576 316.357 282.897 322.394 289.772C309.343 315.693 300.295 335.449 310.499 366.265C323.464 405.42 367.561 428.665 406.862 415.309C416.25 412.119 426.324 407.382 433.395 400.321C440.03 407.249 456.875 420.494 460.046 426.775C457.69 428.32 455.676 430.401 453.667 432.361C449.037 427.383 437.478 416.214 432.656 413.419C429.707 414.36 427.651 416.522 425.002 418.009C412.529 425.013 406.617 428.012 392.053 429.045L392.053 460.17L370.503 460.17L370.503 429.045C353.371 426.696 342.234 423.466 328.337 411.313C323.448 417.117 312.503 427.554 306.701 432.361C303.962 428.853 295.967 421.848 292.41 418.344L292.543 418.173C296.583 412.849 308.584 401.418 313.639 397.411C305.902 382.266 300.357 376.715 297.401 357.414C287.238 357.713 276.891 357.547 266.718 357.414L266.718 341.831L298.194 341.831C298.289 340.545 298.42 339.265 298.778 338.024C299.36 336.986 299.781 332.198 300.1 330.718C303.744 313.812 309.414 307.592 317.607 294.275C314.22 292.993 298.806 278.211 294.781 274.773Z"/>
	<path fill="#7BD4F1" transform="scale(2 2)" d="M369.729 233.437C377.521 233.19 385.389 233.435 393.191 233.437L393.16 250.664C393.141 258.187 391.531 265.241 401.354 266.309C400.494 267.034 400.477 268.228 400.186 269.245C398.109 276.505 388.982 275.92 383.003 276.443C365.264 277.996 342.663 290.205 332.281 304.113C331.31 305.414 330.067 307.24 330.059 308.902C328.185 310.823 327.003 313.119 325.758 315.471C294.409 374.715 365.511 433.233 416.875 393.722C419.076 392.029 425.47 386.815 426.816 384.729C430.49 388.44 435.239 390.929 438.891 394.714C442.954 390.508 445.845 389.353 451.372 390.75C449.246 392.844 448.464 394.505 447.856 397.411C449.654 402.521 463.446 414.594 468.06 418.344C465.403 421.175 462.691 423.935 460.046 426.775C456.875 420.494 440.03 407.249 433.395 400.321C426.324 407.382 416.25 412.119 406.862 415.309C367.561 428.665 323.464 405.42 310.499 366.265C300.295 335.449 309.343 315.693 322.394 289.772C316.357 282.897 306.925 276.576 299.933 268.691C302.893 266.138 305.546 263.333 308.086 260.367C312.318 265.189 324.621 277.52 329.347 281.062C336.275 274.547 347.575 269.085 356.815 266.172C370.828 261.754 369.767 262.93 369.752 248.278L369.729 233.437Z"/>
	<path fill="#EE6151" transform="scale(2 2)" d="M79.3007 55.045C79.5991 57.147 79.3805 59.4106 79.3007 61.531C84.7248 62.0209 93.0741 60.6032 97.93 61.9741C101.153 56.7446 108.913 56.1095 111.969 61.9741C115.349 61.5552 122.664 62.0558 126.564 61.9741C130.045 57.2446 137.552 55.4866 140.447 61.9741L154.983 61.9741C158.335 56.2133 165.376 56.9643 168.759 61.9741C172.812 60.6038 213.395 61.6113 219.899 61.5291L297.25 60.516C320.095 60.4035 342.947 59.927 365.792 60.2383L365.792 88.0367L79.3007 88.0367L79.3007 55.045Z"/>
	<path fill="#244059" transform="scale(2 2)" d="M154.983 61.9741C158.335 56.2133 165.376 56.9643 168.759 61.9741C169.089 64.1351 168.866 72.8323 168.752 75.3486C168.34 84.3997 156.762 84.753 155.147 76.7675C154.569 73.9112 154.679 65.0999 154.983 61.9741Z"/>
	<path fill="#244059" transform="scale(2 2)" d="M126.564 61.9741C130.045 57.2446 137.552 55.4866 140.447 61.9741C140.564 66.6273 141.796 77.375 138.078 80.7604C133.85 84.6106 127.523 81.0934 126.616 76.0443C126.262 74.0692 126.396 64.3 126.564 61.9741Z"/>
	<path fill="#244059" transform="scale(2 2)" d="M97.93 61.9741C101.153 56.7446 108.913 56.1095 111.969 61.9741C112.222 65.4427 112.403 73.919 111.572 77.1479C110.297 82.0988 103.799 84.0665 100.096 80.2769C96.1405 76.2291 97.8668 67.0486 97.93 61.9741Z"/>
	<path fill="#244059" transform="scale(2 2)" d="M330.059 308.902C335.67 306.424 337.565 309.204 341.951 312.118C342.177 313.857 342.045 315.572 341.951 317.316C327.197 339.042 331.769 369.095 354.043 383.932C374.19 397.353 404.314 392.525 417.81 371.869C420.475 367.79 421.428 361.507 426.897 360.405C430.742 359.63 434.976 361.734 435.488 365.87C436.215 371.733 429.495 379.626 426.816 384.729C425.47 386.815 419.076 392.029 416.875 393.722C365.511 433.233 294.409 374.715 325.758 315.471C327.003 313.119 328.185 310.823 330.059 308.902Z"/>
	<path fill="#244059" transform="scale(2 2)" d="M379.12 284.594C406.453 282.592 431.391 300.404 440.254 326.047C443.097 334.273 448.056 352.29 436.884 355.731L399.412 355.736C379.719 355.747 372.516 360.583 372.557 337.613L372.567 301.785C372.551 295.532 370.719 285.866 379.12 284.594Z"/>
	<path fill="#EE6151" transform="scale(2 2)" d="M387.526 299.604C406.574 301.211 414.964 309.585 424.149 324.665C428.351 331.564 427.734 333.795 428.663 341.831L387.526 341.831L387.52 313.663C387.515 309.004 387.278 304.253 387.526 299.604Z"/>
	<path fill="#244059" transform="scale(2 2)" d="M163.483 392.438L188.217 392.428C207.897 392.418 206.433 391.251 206.436 409.413L206.426 432.833C206.4 440.274 206.85 444.803 198.142 444.756L174.383 444.77C167.502 444.792 155.573 447.52 155.055 437.946C154.494 427.596 154.19 409.047 155.082 398.76C155.56 393.245 158.267 392.595 163.483 392.438Z"/>
	<path fill="#8E9DA9" transform="scale(2 2)" d="M169.765 418.344C169.75 413.416 167.778 407.285 172.254 407.246C171.27 408.746 171.677 416.206 171.706 418.344L169.765 418.344Z"/>
	<path fill="#CCD69A" transform="scale(2 2)" d="M172.254 407.246L191.61 407.246L191.61 415.906C191.562 416.71 191.623 417.588 191.211 418.288C184.883 418.723 178.053 418.596 171.706 418.344C171.677 416.206 171.27 408.746 172.254 407.246Z"/>
	<path fill="#75B95D" transform="scale(2 2)" d="M171.706 418.344C178.053 418.596 184.883 418.723 191.211 418.288C191.623 417.588 191.562 416.71 191.61 415.906C191.749 420.747 191.615 425.617 191.61 430.461L169.765 430.461L169.765 418.344L171.706 418.344Z"/>
	<path fill="#244059" transform="scale(2 2)" d="M154.983 347.921L154.972 328.498C154.886 314.281 152.722 312.043 169.38 312.131L194.343 312.094C197.132 312.066 199.95 311.895 202.731 312.118C209.13 317.763 206.381 329.948 206.403 338.454C206.424 346.478 210.101 364.447 198.806 364.733C190.57 364.941 182.28 364.719 174.038 364.726C158.088 364.739 153.932 367.631 154.983 347.921Z"/>
	<path fill="#F9BC5D" transform="scale(2 2)" d="M172.254 326.758L191.61 326.758L191.61 338.024C184.993 338.003 178.316 338.261 171.706 338.024L169.765 338.024C169.753 333.545 168.031 326.849 172.254 326.758Z"/>
	<path fill="#EE6151" transform="scale(2 2)" d="M171.706 338.024C178.316 338.261 184.993 338.003 191.61 338.024L191.61 350.741C184.434 350.145 176.114 350.924 169.765 350.175C170.187 346.226 169.779 342.006 169.765 338.024L171.706 338.024Z"/>
	<path fill="#244059" transform="scale(2 2)" d="M28.7708 394.714C34.6166 390.634 48.3324 392.42 55.4684 392.415C65.8295 392.406 75.805 388.862 80.3452 398.443L80.3502 431.783C80.3049 449.089 74.35 444.773 59.1658 444.775L42.4108 444.769C36.3089 444.765 28.5286 446.669 27.7948 438.358C26.883 428.031 27.0297 406.742 27.6846 396.235L28.7708 394.714Z"/>
	<path fill="#F9BC5D" transform="scale(2 2)" d="M42.2518 407.246L65.7324 407.246C65.8356 410.947 65.7316 414.643 65.7324 418.344L65.7324 430.461L42.2518 430.461L42.2518 418.344L42.2518 407.246Z"/>
	<path fill="#244059" transform="scale(2 2)" d="M129.206 392.438C144.059 392.013 144.049 392.444 144.015 405.289L144.011 421.716C144.009 441.391 148.519 444.793 127.76 444.779L106.013 444.756C97.7524 444.874 91.3318 445.855 91.1163 435.693C90.9325 427.029 91.0854 418.323 91.1177 409.656C91.1806 392.741 89.6006 392.43 109.001 392.427L129.206 392.438Z"/>
	<path fill="#F9BC5D" transform="scale(2 2)" d="M106.013 407.246L129.206 407.246L129.206 418.344L129.206 430.461L106.013 430.461L106.013 418.344L106.013 407.246Z"/>
	<path fill="white" transform="scale(2 2)" d="M16.7554 392.438C16.44 371.913 16.7618 351.338 16.7508 330.808L16.7433 310.186C16.7433 282.847 22.9985 286.656 45.795 286.662L196.342 286.669C195.954 286.913 195.573 287.134 195.143 287.299L195.323 287.496C198.295 287.496 209.844 286.972 211.657 288.443C212.782 289.356 211.824 292.493 216.366 293.663C218.257 292.958 218.927 292.603 219.232 295.033C219.825 299.767 218.075 323.791 216.067 327.466L216.466 327.82C214.467 329.581 209.805 324.126 209.151 321.921C206.91 314.356 211.427 312.948 201.286 310.854L200.994 310.978C201.43 311.555 202.142 311.532 202.731 312.118C199.95 311.895 197.132 312.066 194.343 312.094L169.38 312.131C152.722 312.043 154.886 314.281 154.972 328.498L154.983 347.921C153.326 343.222 150.943 354.829 144.605 339.15L144.419 339.276C144.26 340.926 144.179 352.698 144.002 352.932C144.062 366.05 141.518 364.733 129.177 364.738L113.566 364.717C111.075 364.712 108.494 364.566 106.013 364.72C103.835 365.425 101.433 364.788 99.194 364.72C100.426 365.648 104.909 369.014 103.664 371.016L103.441 370.194L103.044 369.995C102.642 370.29 102.448 370.427 102.288 370.907L102.572 372.964C102.954 372.695 103.149 372.423 103.408 372.037L103.588 372.141C103.262 376.348 94.5903 390.889 91.3484 393.631C89.6341 395.08 87.5079 394.9 85.653 395.875C83.1269 397.203 83.4131 398.237 80.4566 396.701L80.3156 396.954L80.6481 398.096L80.3452 398.443C75.805 388.862 65.8295 392.406 55.4684 392.415C48.3324 392.42 34.6166 390.634 28.7708 394.714L27.6846 396.235C26.2478 396.012 24.4814 396.095 23.14 395.676C18.3071 394.167 19.5732 392.787 19.0898 389.65C19.0144 389.161 17.3912 381.438 17.2551 381.147C15.8697 383.514 17.7972 390.653 16.7554 392.438Z"/>
	<path fill="#244059" transform="scale(2 2)" d="M35.2553 312.118L61.7302 312.131C76.941 312.135 80.4198 308.639 80.3678 325.941L80.3373 342.28C80.3266 350.282 83.1663 363.699 73.4167 364.72L47.1534 364.718C41.5732 364.715 28.7492 367.151 27.8298 359.122C26.8765 350.798 27.0644 326.34 27.8116 318.042C28.2738 312.908 30.3439 312.294 35.2553 312.118Z"/>
	<path fill="#CCD69A" transform="scale(2 2)" d="M42.2518 326.758L65.7324 326.758L65.7324 338.024L51.3905 338.031C47.4124 338.028 42.8063 339.51 42.2518 335.884L42.2518 326.758Z"/>
	<path fill="#75B95D" transform="scale(2 2)" d="M42.2518 335.884C42.8063 339.51 47.4124 338.028 51.3905 338.031L65.7324 338.024L65.7324 350.175C63.0808 349.952 60.3128 350.145 57.648 350.151L42.2518 350.175L42.2518 335.884Z"/>
	<path fill="#244059" transform="scale(2 2)" d="M91.0917 346.962C91.2355 339.595 88.1655 313.575 96.359 312.331C103.983 311.173 129.863 311.646 137.919 312.144C145.963 312.641 144.019 323.106 144.012 328.64C144.004 336.719 143.768 344.859 144.002 352.932C144.062 366.05 141.518 364.733 129.177 364.738L113.566 364.717C111.075 364.712 108.494 364.566 106.013 364.72C88.4785 364.676 91.8608 363.252 91.0917 346.962Z"/>
	<path fill="#F9BC5D" transform="scale(2 2)" d="M106.013 326.758C112.95 326.521 122.356 326.295 129.206 326.758L129.206 338.024C121.503 337.785 113.724 338.047 106.013 338.024L106.013 326.758Z"/>
	<path fill="#EE6151" transform="scale(2 2)" d="M106.013 338.024C113.724 338.047 121.503 337.785 129.206 338.024C129.192 342.074 129.159 346.125 129.206 350.175L106.013 350.175L106.013 338.024Z"/>
	<path fill="white" transform="scale(2 2)" d="M79.3007 102.981L341.545 102.977C348.031 102.973 359.876 103.775 365.792 102.981L365.792 218.236L364.492 218.201C352.869 217.975 354.647 225.744 354.649 234.983L354.667 251.224C347.02 253.122 336.803 258.385 330.059 262.577C328.499 259.631 312.227 242.589 308.46 242.763C302.342 243.046 277.191 268.929 278.108 276.94C278.431 279.757 294.735 294.582 298.194 297.123C292.745 304.121 288.926 314.455 286.676 322.977C280.955 323.08 275.216 322.984 269.494 322.977C258.386 322.917 247.34 323.714 236.243 323.692L236.255 305.736C236.278 279.689 227.454 271.829 201.411 271.818L186.618 271.832C186.35 262.862 190.262 248.998 179.54 246.681C179.452 246.704 179.363 246.726 179.275 246.75L178.835 246.872C168.909 249.591 172.247 263.585 172.254 271.832L116.491 271.832C116.27 256.983 116.49 242.098 116.491 227.245L151.77 227.245C156.879 222.899 161.745 217.145 166.613 212.382L126.847 212.385C120.913 212.381 112.594 211.851 106.903 212.584C98.6886 213.642 101.609 230.269 101.608 236.896L101.615 271.832L79.3007 271.832C78.9393 253.093 79.3005 234.267 79.3006 215.519L79.3007 102.981Z"/>
	<path fill="#244059" transform="scale(2 2)" d="M259.686 294.275C268.032 294.303 277.31 291.464 281.69 299.604L281.711 300.02C282.054 307.169 278.276 308.899 271.722 308.902C266.71 308.921 254.925 309.949 251.114 306.851C248.428 304.666 247.711 299.508 250.14 296.88C252.502 294.324 256.474 294.445 259.686 294.275Z"/>
	<path fill="#244059" transform="scale(2 2)" d="M226.026 254.044C231.746 253.779 264.164 253.303 266.754 254.99C274.182 259.828 270.432 267.897 262.683 268.691L237.267 268.677C233.005 268.689 228.277 269.133 224.069 268.52C213.22 266.939 216.145 254.687 226.026 254.044Z"/>
	<path fill="#244059" transform="scale(2 2)" d="M149.014 156.023C150.87 154.633 152.418 152.8 154.051 151.16L161.365 143.874C167.019 138.147 180.772 123.118 186.618 119.028C191.262 115.778 198.362 119.368 197.882 125.268C197.508 129.854 189.376 136.724 185.862 139.756C181.5 145.282 175.784 149.578 171.706 154.938C164.32 160.372 159.003 168.51 151.77 173.417C145.784 174.936 143.071 169.822 139.489 166.14C135.929 162.479 128.957 157.774 129.091 152.166C129.177 148.589 132.966 145.211 136.53 145.483C141.153 145.836 146.033 152.731 149.014 156.023Z"/>
	<path fill="#244059" transform="scale(2 2)" d="M187.012 207.3C194.721 206.695 199.746 212.687 194.933 218.955C188.133 227.813 171.88 241.869 163.368 250.374C150.248 263.483 149.259 270.299 135.064 254.044C132.014 251.295 126.041 246.589 126.115 242.478C126.183 238.667 130.536 235.461 134.118 235.525C138.984 235.611 144.214 242.613 147.274 245.888C151.842 240.805 182.242 209.529 187.012 207.3Z"/>
	<path fill="#244059" transform="scale(2 2)" d="M226.026 215.603L318.076 215.589C322.45 215.585 331.679 214.399 335.295 217.284C341.159 221.962 336.712 229.706 330.059 230.111L238.169 230.119C233.309 230.131 224.127 231.493 219.992 228.292C213.569 223.32 218.417 215.939 226.026 215.603Z"/>
	<path fill="#244059" transform="scale(2 2)" d="M324.99 137.175C345.125 136.5 337.769 150.892 331.695 151.636C328.223 152.061 324.448 151.769 320.946 151.768L230.125 151.761C210.441 151.895 216.942 138.081 223.143 137.343C226.857 136.902 230.795 137.166 234.534 137.166L324.99 137.175Z"/>
	<path fill="#244059" transform="scale(2 2)" d="M224.779 175.532L317.62 175.513C321.983 175.51 326.422 175.334 330.777 175.58C340.244 176.114 340.126 188.905 331.002 190.189L238.254 190.197C233.812 190.197 223.739 191.331 219.982 188.652C214.107 184.464 217.655 176.334 224.779 175.532Z"/>
	<path fill="#244059" transform="scale(2 2)" d="M101.615 193.196L101.621 144.462C101.622 139.341 100.295 123.652 103.417 120.612C105.562 118.523 114.45 119.495 117.216 119.495L156.006 119.504C159.538 119.499 163.086 119.325 166.613 119.506C167.302 120.671 167.991 121.82 168.759 122.936C166.039 125.835 159.885 132.166 157.076 134.13C155.143 136.185 153.326 138.406 150.808 139.756C141.859 140.22 131.606 138.216 124.916 145.856C118.228 153.493 121.762 165.013 128.871 171.014C133.085 174.571 148.329 177.802 151.77 173.417C159.003 168.51 164.32 160.372 171.706 154.938C175.784 149.578 181.5 145.282 185.862 139.756C186.37 145.004 185.852 152.785 186.618 156.78C187.2 162.589 187.27 186.556 186.402 192.254C185.343 199.206 167.762 196.647 161.868 196.651L113.986 196.656C109.006 196.653 104.821 197.764 101.615 193.196Z"/>
	<path fill="#EE6151" transform="scale(2 2)" d="M116.491 134.13L157.076 134.13C155.143 136.185 153.326 138.406 150.808 139.756C141.859 140.22 131.606 138.216 124.916 145.856C118.228 153.493 121.762 165.013 128.871 171.014C133.085 174.571 148.329 177.802 151.77 173.417C159.003 168.51 164.32 160.372 171.706 154.938C175.784 149.578 181.5 145.282 185.862 139.756C186.37 145.004 185.852 152.785 186.618 156.78L172.254 156.78C172.588 159.243 172.281 162.08 172.276 164.588L172.254 182.239L116.491 182.239L116.491 134.13Z"/>
</svg>
